<svg xmlns="http://www.w3.org/2000/svg" width="1024" height="1024" viewBox="0 0 1024 1024"><defs><linearGradient id="pink" x1="0" y1="0" x2="1" y2="1"><stop stop-color="#ffd6dc"/><stop offset="1" stop-color="#ffb8c3"/></linearGradient><radialGradient id="eye" cx="36%" cy="28%" r="70%"><stop stop-color="#50515a"/><stop offset=".38" stop-color="#17181d"/><stop offset="1" stop-color="#050507"/></radialGradient></defs><g fill="#70aa62" stroke="#40763e" stroke-width="8"><ellipse cx="220" cy="265" rx="38" ry="78" transform="rotate(-35 220 265)"/><ellipse cx="820" cy="650" rx="34" ry="72" transform="rotate(42 820 650)"/></g><g fill="#fff3a6"><circle cx="170" cy="560" r="23"/><circle cx="830" cy="240" r="19"/></g><g transform="translate(0 0) rotate(0 512 512) skewX(0) translate(0 0) scale(1 1)"><g id="body" filter="none"><path d="M790.598 685.078C668.177 792.285 477.345 863.117 346.738 863.117C140.474 863.117 162.024 686.454 162.024 468.854C162.024 368.489 197.649 276.833 256.275 207.203C320.127 153.532 400.987 121.442 488.896 121.442C695.16 121.442 862.62 298.106 862.62 515.706C862.62 576.317 834.963 633.752 790.598 685.078Z" fill="url(#pink)" stroke="#d96d88" stroke-width="12" stroke-linejoin="round"/><path d="M260 250Q390 135 545 150" fill="none" stroke="#fff" stroke-width="23" stroke-linecap="round" opacity=".72"/></g><g id="eyes" transform="translate(0 0)"><g transform="translate(496 382) scale(1 1) translate(-496 -382)"><ellipse cx="496" cy="382" rx="67" ry="70" fill="url(#eye)" stroke="#23242a" stroke-width="7"/><circle cx="468" cy="353" r="24" fill="#fff"/></g><g transform="translate(758 305) scale(1 1) translate(-758 -305)"><ellipse cx="758" cy="305" rx="49" ry="52" fill="url(#eye)" stroke="#23242a" stroke-width="6"/><circle cx="738" cy="284" r="18" fill="#fff"/></g></g><g id="mouth"><path d="M594 552L650 552" fill="none" stroke="#743b4c" stroke-width="14" stroke-linecap="round"/></g></g></svg>